HIERARCHY
ROOT Hips
{
	OFFSET -3.958830 18.904000 13.208200
	CHANNELS 6 Xposition Yposition Zposition Zrotation Yrotation Xrotation 
	JOINT LHipJoint
	{
		OFFSET 0.000000 0.000000 0.000000
		CHANNELS 3 Zrotation Yrotation Xrotation
		JOINT LeftUpLeg
		{
			OFFSET 1.800000 -1.400000 0.085000
			CHANNELS 3 Zrotation Yrotation Xrotation
			JOINT LeftLeg
			{
				OFFSET 2.215000 -6.000000 0.000000
				CHANNELS 3 Zrotation Yrotation Xrotation
				JOINT LeftFoot
				{
					OFFSET 2.500000 -6.900000 0.000000
					CHANNELS 3 Zrotation Yrotation Xrotation
					JOINT LeftToeBase
					{
						OFFSET 0.200000 -0.500000 1.950000
						CHANNELS 3 Zrotation Yrotation Xrotation
						End Site
						{
							OFFSET 0.000000 0.000000 0.000000
						}
					}
				}
			}
		}
	}
	JOINT RHipJoint
	{
		OFFSET 0.000000 0.000000 0.000000
		CHANNELS 3 Zrotation Yrotation Xrotation
		JOINT RightUpLeg
		{
			OFFSET -1.800000 -1.400000 0.085000
			CHANNELS 3 Zrotation Yrotation Xrotation
			JOINT RightLeg
			{
				OFFSET -2.215000 -6.000000 0.000000
				CHANNELS 3 Zrotation Yrotation Xrotation
				JOINT RightFoot
				{
					OFFSET -2.500000 -6.900000 0.000000
					CHANNELS 3 Zrotation Yrotation Xrotation
					JOINT RightToeBase
					{
						OFFSET -0.200000 -0.500000 1.950000
						CHANNELS 3 Zrotation Yrotation Xrotation
						End Site
						{
							OFFSET 0.000000 0.000000 0.000000
						}
					}
				}
			}
		}
	}
	JOINT LowerBack
	{
		OFFSET 0.000000 0.000000 0.000000
		CHANNELS 3 Zrotation Yrotation Xrotation
		JOINT Spine
		{
			OFFSET -0.087000 1.940000 -0.288900
			CHANNELS 3 Zrotation Yrotation Xrotation
			JOINT Spine1
			{
				OFFSET 0.000000 1.950000 0.060000
				CHANNELS 3 Zrotation Yrotation Xrotation
				JOINT Neck
				{
					OFFSET 0.000000 0.000000 0.000000
					CHANNELS 3 Zrotation Yrotation Xrotation
					JOINT Neck1
					{
						OFFSET 0.000000 1.600000 0.340000
						CHANNELS 3 Zrotation Yrotation Xrotation
						JOINT Head
						{
							OFFSET 0.000000 1.667000 -0.240000
							CHANNELS 3 Zrotation Yrotation Xrotation
							End Site
							{
								OFFSET 0.000000 0.000000 0.000000
							}
						}
					}
				}
				JOINT LeftShoulder
				{
					OFFSET 0.000000 0.000000 0.000000
					CHANNELS 3 Zrotation Yrotation Xrotation
					JOINT LeftArm
					{
						OFFSET 2.700000 1.550000 -0.730000
						CHANNELS 3 Zrotation Yrotation Xrotation
						JOINT LeftForeArm
						{
							OFFSET 5.450000 0.000000 0.000000
							CHANNELS 3 Zrotation Yrotation Xrotation
							JOINT LeftHand
							{
								OFFSET 3.450000 0.000000 0.000000
								CHANNELS 3 Zrotation Yrotation Xrotation
								JOINT LeftHandIndex1
								{
									OFFSET 0.750000 0.000000 0.000000
									CHANNELS 3 Zrotation Yrotation Xrotation
									End Site
									{
										OFFSET 0.000000 0.000000 0.000000
									}
								}
							}
						}
					}
				}
				JOINT RightShoulder
				{
					OFFSET 0.000000 0.000000 0.000000
					CHANNELS 3 Zrotation Yrotation Xrotation
					JOINT RightArm
					{
						OFFSET -2.700000 1.550000 -0.730000
						CHANNELS 3 Zrotation Yrotation Xrotation
						JOINT RightForeArm
						{
							OFFSET -5.450000 0.000000 0.000000
							CHANNELS 3 Zrotation Yrotation Xrotation
							JOINT RightHand
							{
								OFFSET -3.450000 0.000000 0.000000
								CHANNELS 3 Zrotation Yrotation Xrotation
								JOINT RightHandIndex1
								{
									OFFSET -0.750000 0.000000 0.000000
									CHANNELS 3 Zrotation Yrotation Xrotation
									End Site
									{
										OFFSET 0.000000 0.000000 0.000000
									}
								}
							}
						}
					}
				}
			}
		}
	}
}
MOTION
Frames: 13
Frame Time: 0.016667
0.428820 17.420650 -2.149480 0.339225 -1.675819 16.152296 -15.510607 11.039892 5.396639 -8.532465 -9.490207 -50.683635 -3.667444 5.456057 23.478327 -0.787990 3.477580 3.274440 0.446480 0.108610 0.501890 18.149633 -10.955606 2.041400 -8.448264 1.203097 3.307013 5.565115 -7.122610 20.241371 -0.567803 -5.277469 2.712328 0.165760 0.099600 0.162080 -2.922153 0.425400 -7.799564 -0.524269 11.588876 16.784127 1.865074 12.519907 0.896461 3.486395 4.960701 -5.044464 8.474045 -6.002579 32.538335 -4.677600 -0.715710 -12.733470 -27.143632 3.519260 -1.001622 -43.508174 11.871827 -8.601681 -33.715269 -4.295072 -2.346152 -3.709663 2.772175 0.565590 0.103080 0.010850 0.094410 20.334953 -0.631494 1.867117 46.651750 2.146685 -7.033492 79.610170 54.319573 34.010320 2.198663 -1.820706 -0.261270 0.234400 -0.055360 -0.327980 
0.393460 17.395040 -2.300380 -0.062045 -3.813876 16.865981 -15.527388 10.895077 5.472639 -8.137871 -8.968395 -54.185555 -3.053474 5.738514 24.415208 -0.770331 3.674417 3.179967 0.472490 0.131110 0.537630 18.156744 -10.945028 2.014039 -8.913958 1.401281 2.785250 5.618190 -6.907648 19.079043 -0.546851 -5.144698 2.746303 0.178990 0.075250 0.162920 -2.899830 0.668355 -7.779895 -1.408208 13.097959 16.730623 2.423118 13.873604 0.619697 3.345206 5.258891 -4.877700 9.119592 -6.358138 33.189157 -4.740000 -0.617230 -13.001520 -27.448503 3.118329 -0.847245 -44.207367 11.127122 -8.374783 -32.434376 -3.508357 -2.528290 -3.710570 2.745020 0.576640 0.090010 0.028400 0.091350 20.939548 0.338411 1.292733 47.928966 5.018154 -7.302945 62.149440 51.462634 23.315077 2.121639 -1.784387 -0.255790 0.230440 -0.072850 -0.339110 
0.360410 17.356970 -2.444190 -0.508033 -5.085435 17.495698 -15.543789 10.791168 5.526067 -8.251367 -8.544781 -56.950640 -2.013292 5.686689 24.399554 -0.772837 3.686123 3.168745 0.462790 0.112980 0.541310 18.159900 -10.925606 2.024923 -8.812491 1.370927 2.517250 5.705122 -6.751094 17.980738 -0.526512 -5.038395 2.783580 0.168600 0.071940 0.155460 -2.877900 0.832044 -7.796649 -1.847770 14.180937 16.664236 3.149693 14.848675 0.341695 3.132149 5.288238 -4.904620 9.223956 -6.530219 34.421905 -4.881430 -0.620440 -12.443080 -27.388124 2.699526 -0.592127 -45.522785 10.639799 -8.376452 -30.662368 -2.948964 -2.631476 -3.730768 2.699148 0.585820 0.084670 0.029120 0.087280 21.350487 1.411195 0.984954 48.737553 7.093974 -7.560942 48.828259 47.046163 15.584025 2.078477 -1.704587 -0.264140 0.233190 -0.072020 -0.344770 
0.327560 17.308360 -2.581620 -0.633137 -5.955143 18.034819 -15.568716 10.756200 5.533271 -8.722641 -8.225130 -58.566395 -1.466007 5.452925 22.851023 -0.784535 3.436184 3.249655 0.449280 0.105250 0.522830 18.144461 -10.918209 2.025283 -8.585730 1.261980 2.205545 5.545775 -6.596939 17.384649 -0.508572 -4.946237 2.819909 0.152320 0.060790 0.145310 -2.814840 0.891787 -7.784066 -2.788996 15.129255 16.516677 4.148523 15.579217 0.218113 2.830153 5.284963 -5.172820 9.267178 -6.459297 35.895599 -4.681060 -0.496490 -11.770830 -26.801604 2.096892 -0.105550 -47.024964 10.438903 -8.674200 -28.872004 -3.040871 -2.588312 -3.739370 2.678685 0.587080 0.073070 0.031800 0.085300 21.503214 2.650694 0.926435 49.443801 8.691061 -7.607724 38.895459 42.433440 10.344777 2.067389 -1.622013 -0.257290 0.220730 -0.071050 -0.340200 
0.300890 17.249560 -2.710880 -0.674371 -6.018721 18.677328 -15.581308 10.699908 5.546166 -9.327162 -8.177916 -59.547647 -1.424690 5.108251 20.360017 -0.818853 3.079265 3.386105 0.441200 0.092520 0.523140 18.142769 -10.908124 2.043721 -8.014862 1.068272 1.865183 5.611987 -6.517720 16.940774 -0.499704 -4.873949 2.849172 0.140620 0.055190 0.137730 -2.793603 0.962937 -7.790585 -3.289300 15.606173 16.375425 4.724022 15.900693 0.085481 2.671081 5.400342 -5.450317 9.585463 -6.479667 36.842154 -4.725540 -0.286790 -11.160800 -26.331772 1.476073 0.323591 -47.857947 10.369250 -8.869180 -27.711095 -3.088977 -2.575847 -3.744557 2.657393 0.593220 0.067350 0.034190 0.085880 21.457304 3.565965 0.893164 50.127920 9.923564 -7.343425 31.640718 38.218572 6.957574 2.070445 -1.546059 -0.260930 0.217170 -0.076060 -0.342920 
0.281930 17.184950 -2.832250 -0.456218 -5.431564 19.419618 -15.587968 10.635833 5.584496 -10.527204 -8.562294 -59.900798 -1.245975 4.541378 17.073963 -0.849447 2.582664 3.583475 0.423950 0.072520 0.506300 18.145571 -10.897054 2.069379 -7.201047 0.767493 1.451153 5.571341 -6.404644 16.495740 -0.481531 -4.791559 2.886009 0.120920 0.059150 0.131700 -2.790271 1.018244 -7.831396 -3.579258 15.623068 16.264163 5.035076 15.797065 -0.218971 2.464118 5.365213 -5.714758 9.610758 -6.490401 37.737152 -4.646900 -0.329340 -9.927410 -26.166907 0.885310 0.762647 -48.367869 10.639458 -9.138373 -26.780642 -3.411512 -2.515618 -3.743971 2.658920 0.579220 0.068080 0.024900 0.089950 21.791012 4.408536 0.860171 50.523353 10.785297 -6.888745 26.152288 34.266740 4.690508 2.089247 -1.491837 -0.255850 0.204640 -0.078380 -0.333850 
0.272470 17.113110 -2.951400 -0.257430 -4.434182 19.792492 -15.577716 10.583546 5.637517 -12.018062 -9.068793 -59.880096 -0.665447 3.995276 14.259410 -0.889364 2.157805 3.753469 0.401440 0.040170 0.497670 18.155778 -10.909662 2.126207 -6.105999 0.384333 1.410588 5.379527 -6.321161 16.225957 -0.479150 -4.723150 2.924868 0.094090 0.056220 0.116600 -2.823307 1.102080 -7.940657 -3.009066 15.392224 16.774841 4.747259 15.650231 -0.509425 2.410085 5.411329 -6.293427 9.849909 -6.662648 39.424730 -4.485090 -0.465070 -9.109900 -25.988583 -0.184335 1.285648 -48.718548 10.822063 -9.354452 -26.307894 -3.523376 -2.528569 -3.736342 2.632033 0.592030 0.057830 0.023810 0.083690 21.707387 5.561767 1.153312 51.136190 11.263396 -6.612554 21.433191 30.861421 3.030956 2.106281 -1.412566 -0.262980 0.208940 -0.071510 -0.337260 
0.262470 17.039870 -3.058650 0.077922 -3.190311 19.803716 -15.583918 10.572100 5.694921 -13.718559 -9.634733 -59.663733 0.048887 3.598988 12.436604 -0.906928 1.841370 3.871550 0.396530 0.035350 0.501330 18.148850 -10.890744 2.192057 -4.856035 -0.097435 1.871100 4.893469 -6.188340 15.870118 -0.498216 -4.662986 2.949855 0.077970 0.031660 0.103220 -2.809730 1.069078 -8.058009 -2.543380 15.153561 17.600759 4.617401 15.529594 -0.915625 2.387978 5.520282 -6.859718 10.203669 -6.964914 41.468018 -4.306120 -0.612210 -8.605310 -26.380557 -1.301289 1.738015 -48.629843 11.036900 -9.447987 -26.068188 -3.474352 -2.563733 -3.704870 2.622219 0.606370 0.033070 0.040670 0.078030 22.143144 6.773482 1.500797 51.031241 11.351048 -6.399412 17.428496 27.865708 1.875688 2.131158 -1.350245 -0.256390 0.204250 -0.077660 -0.338160 
0.252910 16.959970 -3.149550 0.480748 -2.139602 19.671806 -15.595265 10.579979 5.733762 -15.149674 -10.054783 -59.407769 0.400774 3.374796 11.278502 -0.919537 1.646902 3.943107 0.409470 0.044070 0.507960 18.135819 -10.854140 2.258992 -3.857942 -0.523775 2.552189 4.529349 -6.094440 15.362195 -0.531316 -4.631519 2.960657 0.072690 0.009750 0.101160 -2.780441 0.985262 -8.156126 -2.316867 15.095811 18.461298 4.555848 15.576487 -1.356428 2.292219 5.561203 -7.302864 10.336585 -7.306549 43.229163 -3.664840 -1.095430 -8.557490 -27.008599 -2.253908 2.070529 -48.128227 11.361198 -9.486080 -26.289378 -3.222257 -2.677583 -3.663207 2.627056 0.630080 0.005280 0.063520 0.083800 22.954759 7.886733 1.822386 50.434360 11.155677 -6.188182 13.923200 24.848340 1.034139 2.150425 -1.301846 -0.247350 0.200380 -0.088730 -0.336700 
0.252150 16.873590 -3.225020 0.810438 -0.585141 19.555456 -15.599336 10.527636 5.822492 -16.802250 -10.727510 -59.493293 1.173084 3.157689 10.713726 -0.920080 1.481265 3.993192 0.417850 0.059470 0.509690 18.139875 -10.793525 2.338050 -2.790592 -0.931040 3.320686 4.583623 -6.105827 14.835457 -0.566102 -4.637309 2.952581 0.068810 -0.017550 0.099890 -2.792631 0.946547 -8.284459 -1.560650 14.789455 19.343306 4.271729 15.483379 -1.881571 2.294264 5.619546 -7.601653 10.491816 -7.846563 44.484719 -3.357110 -1.687010 -8.572810 -27.675724 -2.770543 2.190473 -47.571297 11.725880 -9.424068 -26.162214 -2.551177 -2.822336 -3.633371 2.633809 0.635020 -0.018180 0.081740 0.078210 23.543979 8.453769 2.014231 49.869797 10.754706 -5.912372 11.303409 22.130914 0.513730 2.180073 -1.265723 -0.226960 0.186790 -0.093490 -0.331570 
0.255870 16.783540 -3.286040 1.324852 0.989208 19.522129 -15.604378 10.412540 5.966467 -18.314951 -11.648316 -59.992186 1.848216 3.028807 10.943911 -0.921217 1.415247 4.011276 0.405250 0.044140 0.501840 18.153797 -10.719547 2.393502 -1.983325 -1.260836 4.050505 4.716225 -6.145039 14.256307 -0.588126 -4.653598 2.946683 0.053890 -0.027110 0.097820 -2.819284 0.956753 -8.411915 -0.929373 14.550110 20.139206 3.777141 15.424507 -2.347434 2.322176 5.782592 -7.979017 10.880336 -8.428283 45.230210 -3.092300 -2.239370 -8.375050 -28.137714 -3.292716 2.409859 -47.065506 12.418072 -9.778210 -26.023517 -3.545965 -2.696820 -3.613686 2.635846 0.641650 -0.028910 0.085800 0.067120 23.838997 8.905796 2.279381 49.649130 10.093963 -5.776972 9.247491 19.952534 0.179824 2.201215 -1.227417 -0.222330 0.182040 -0.081940 -0.332310 
0.261240 16.705210 -3.323040 1.933453 2.228681 19.085539 -15.609910 10.330701 6.113485 -19.466376 -12.467338 -60.365624 2.654788 2.940458 12.187117 -0.913056 1.436024 3.995124 0.397660 0.033540 0.494640 18.157249 -10.649955 2.444090 -1.705107 -1.475047 5.172238 4.848373 -6.227599 13.707801 -0.626142 -4.700429 2.932339 0.038160 -0.038000 0.090090 -2.831531 0.919305 -8.554806 -0.310829 14.451356 21.303968 3.122275 15.573913 -2.860630 2.301705 5.709692 -8.527334 10.794194 -8.872554 46.929760 -2.264230 -3.048530 -8.578550 -28.606565 -4.037458 2.575679 -46.484767 12.644224 -9.818990 -25.529857 -4.011980 -2.613126 -3.585731 2.617602 0.667580 -0.053750 0.100560 0.059620 24.219123 9.803789 2.875690 49.269880 9.078450 -5.846035 7.544454 18.243667 -0.020119 2.215646 -1.178976 -0.220870 0.191390 -0.071220 -0.331420 
0.269590 16.629430 -3.335120 2.528098 3.282676 18.535457 -15.624731 10.213729 6.273370 -20.393007 -13.362002 -60.915818 3.541047 2.877908 14.389115 -0.898569 1.567037 3.931865 0.393050 0.021310 0.495820 18.160225 -10.559650 2.486354 -1.697107 -1.631683 6.682778 5.046927 -6.342565 12.947142 -0.670455 -4.788914 2.901096 0.026180 -0.055310 0.081110 -2.827210 0.895131 -8.677887 0.109463 14.535274 22.148434 2.677613 15.850291 -3.165392 2.301600 5.727022 -9.105745 10.927351 -9.397691 48.772303 -1.509940 -3.804930 -8.605580 -28.890048 -4.769111 2.696929 -46.142269 12.534807 -9.692369 -24.739092 -4.077914 -2.557040 -3.567118 2.594166 0.695860 -0.078030 0.112830 0.046460 24.423230 10.625449 3.554886 49.122819 7.839919 -6.009715 6.291015 17.028284 -0.132296 2.223680 -1.140566 -0.223000 0.195370 -0.061300 -0.338480 
